<svg width="17" height="17" viewBox="0 0 17 17" fill="none" xmlns="http://www.w3.org/2000/svg">
<path d="M3.12328 6.23665C3.21703 6.14302 3.34411 6.09043 3.47661 6.09043C3.60911 6.09043 3.73619 6.14302 3.82994 6.23665L8.30994 10.7167L12.7899 6.23665C12.8357 6.18753 12.8909 6.14813 12.9523 6.1208C13.0136 6.09347 13.0798 6.07878 13.1469 6.07759C13.2141 6.07641 13.2808 6.08876 13.343 6.11391C13.4053 6.13905 13.4618 6.17648 13.5093 6.22396C13.5568 6.27144 13.5942 6.328 13.6194 6.39026C13.6445 6.45251 13.6569 6.5192 13.6557 6.58634C13.6545 6.65347 13.6398 6.71968 13.6125 6.78101C13.5851 6.84235 13.5457 6.89755 13.4966 6.94332L8.66328 11.7767C8.56953 11.8703 8.44244 11.9229 8.30994 11.9229C8.17744 11.9229 8.05036 11.8703 7.95661 11.7767L3.12328 6.94332C3.02964 6.84957 2.97705 6.72249 2.97705 6.58999C2.97705 6.45749 3.02964 6.3304 3.12328 6.23665Z" fill="black"/>
</svg>
