<svg width="12" height="12" viewBox="0 0 12 12" fill="none" xmlns="http://www.w3.org/2000/svg">
<path d="M6.6335 2.10451C6.56098 2.03888 6.46568 2.00419 6.36794 2.00783C6.2702 2.01147 6.17775 2.05315 6.1103 2.12399C6.04286 2.19482 6.00576 2.28921 6.00692 2.38701C6.00807 2.48481 6.0474 2.57829 6.1165 2.64751L9.242 5.62501H1.875C1.77554 5.62501 1.68016 5.66452 1.60983 5.73484C1.53951 5.80517 1.5 5.90055 1.5 6.00001C1.5 6.09946 1.53951 6.19485 1.60983 6.26517C1.68016 6.3355 1.77554 6.37501 1.875 6.37501H9.242L6.1165 9.35201C6.04443 9.42057 6.00254 9.51495 6.00006 9.61439C5.99757 9.71383 6.03469 9.81019 6.10325 9.88226C6.17181 9.95433 6.26619 9.99622 6.36563 9.9987C6.46507 10.0012 6.56143 9.96407 6.6335 9.89551L10.3435 6.36201C10.4247 6.28494 10.4775 6.18279 10.4935 6.07201C10.5027 6.02409 10.5025 5.97486 10.493 5.92701C10.4768 5.81658 10.424 5.71479 10.343 5.63801L6.6335 2.10451Z" fill="white"/>
</svg>
