<svg width="13" height="12" viewBox="0 0 13 12" fill="none" xmlns="http://www.w3.org/2000/svg">
<path d="M7.15352 2.10475C7.081 2.03913 6.9857 2.00443 6.88796 2.00807C6.79022 2.01171 6.69777 2.05339 6.63032 2.12423C6.56288 2.19507 6.52578 2.28945 6.52694 2.38725C6.52809 2.48505 6.56742 2.57853 6.63652 2.64775L9.76202 5.62525H2.39502C2.29556 5.62525 2.20018 5.66476 2.12985 5.73509C2.05953 5.80541 2.02002 5.9008 2.02002 6.00025C2.02002 6.09971 2.05953 6.19509 2.12985 6.26542C2.20018 6.33574 2.29556 6.37525 2.39502 6.37525H9.76202L6.63652 9.35225C6.56445 9.42081 6.52256 9.51519 6.52008 9.61463C6.51759 9.71407 6.55471 9.81043 6.62327 9.8825C6.69183 9.95458 6.78621 9.99646 6.88565 9.99895C6.98509 10.0014 7.08145 9.96431 7.15352 9.89575L10.8635 6.36225C10.9447 6.28519 10.9975 6.18303 11.0135 6.07225C11.0227 6.02434 11.0225 5.9751 11.013 5.92725C10.9969 5.81682 10.944 5.71503 10.863 5.63825L7.15352 2.10475Z" fill="black"/>
</svg>
