<svg width="24" height="25" viewBox="0 0 24 25" fill="none" xmlns="http://www.w3.org/2000/svg">
<g clip-path="url(#clip0_2_270)">
<path d="M11.1428 19.6072H12.8571M17.9999 1.60718H5.99993C5.54527 1.60718 5.10924 1.78779 4.78775 2.10928C4.46626 2.43077 4.28564 2.86681 4.28564 3.32146V22.1786C4.28564 22.6333 4.46626 23.0693 4.78775 23.3908C5.10924 23.7123 5.54527 23.8929 5.99993 23.8929H17.9999C18.4546 23.8929 18.8906 23.7123 19.2121 23.3908C19.5336 23.0693 19.7142 22.6333 19.7142 22.1786V3.32146C19.7142 2.86681 19.5336 2.43077 19.2121 2.10928C18.8906 1.78779 18.4546 1.60718 17.9999 1.60718Z" stroke="black" stroke-width="1.71429" stroke-linecap="round" stroke-linejoin="round"/>
</g>
<defs>
<clipPath id="clip0_2_270">
<rect width="24" height="24" fill="white" transform="translate(0 0.75)"/>
</clipPath>
</defs>
</svg>
