<svg width="24" height="25" viewBox="0 0 24 25" fill="none" xmlns="http://www.w3.org/2000/svg">
<path d="M12 2.95996C17.523 2.95996 22 7.43696 22 12.96C22 18.483 17.523 22.96 12 22.96C6.477 22.96 2 18.483 2 12.96C2 7.43696 6.477 2.95996 12 2.95996ZM12 4.45996C9.74566 4.45996 7.58365 5.35549 5.98959 6.94955C4.39553 8.54361 3.5 10.7056 3.5 12.96C3.5 15.2143 4.39553 17.3763 5.98959 18.9704C7.58365 20.5644 9.74566 21.46 12 21.46C14.2543 21.46 16.4163 20.5644 18.0104 18.9704C19.6045 17.3763 20.5 15.2143 20.5 12.96C20.5 10.7056 19.6045 8.54361 18.0104 6.94955C16.4163 5.35549 14.2543 4.45996 12 4.45996ZM10.75 14.4L15.22 9.92996C15.354 9.797 15.5332 9.71947 15.7219 9.71282C15.9105 9.70618 16.0947 9.77092 16.2378 9.89412C16.3808 10.0173 16.4721 10.1899 16.4934 10.3775C16.5148 10.565 16.4647 10.7538 16.353 10.906L16.28 10.99L11.28 15.99C11.153 16.117 10.9847 16.1942 10.8055 16.2076C10.6264 16.221 10.4485 16.1697 10.304 16.063L10.22 15.99L7.72 13.49C7.58704 13.356 7.5095 13.1768 7.50286 12.9881C7.49622 12.7994 7.56096 12.6152 7.68416 12.4722C7.80736 12.3292 7.97996 12.2379 8.16752 12.2165C8.35508 12.1952 8.54379 12.2453 8.696 12.357L8.78 12.43L10.75 14.4Z" fill="black"/>
</svg>
