<svg width="12" height="13" viewBox="0 0 12 13" fill="none" xmlns="http://www.w3.org/2000/svg">
<g clip-path="url(#clip0_9_36)">
<path d="M11.5541 6.46301C11.3191 9.42301 8.80307 11.678 5.83407 11.59C2.86607 11.501 0.489074 9.10001 0.430074 6.13101C0.371074 3.16201 2.65207 0.669013 5.61407 0.463013" stroke="#52BF14" stroke-linecap="round" stroke-linejoin="round"/>
<path d="M8.39086 6.95497C7.96486 8.05197 6.84786 8.71997 5.67986 8.57597C4.51186 8.43197 3.58986 7.51297 3.44286 6.34497C3.29586 5.17697 3.96086 4.05797 5.05686 3.62897M5.99986 6.01997L8.14286 3.87797M8.14286 3.87797L9.85686 4.30597L11.5709 2.59197L9.85686 2.16297L9.42886 0.448975L7.71386 2.16297L8.14286 3.87797Z" stroke="#52BF14" stroke-linecap="round" stroke-linejoin="round"/>
</g>
<defs>
<clipPath id="clip0_9_36">
<rect width="12" height="12" fill="white" transform="translate(0 0.0200195)"/>
</clipPath>
</defs>
</svg>
