<svg width="20" height="21" viewBox="0 0 20 21" fill="none" xmlns="http://www.w3.org/2000/svg">
<path d="M18.3327 10.4993V15.4993C18.3327 17.3403 16.8403 18.8327 14.9993 18.8327H4.99935C3.1584 18.8327 1.66602 17.3403 1.66602 15.4993V5.49935C1.66602 3.6584 3.1584 2.16602 4.99935 2.16602H9.99935M13.0713 3.85164C13.0713 3.85164 13.0713 5.04355 14.2632 6.23547C15.4551 7.42738 16.6471 7.42738 16.6471 7.42738M7.62824 13.824L10.1313 13.4664C10.4923 13.4148 10.8269 13.2475 11.0848 12.9896L17.839 6.23547C18.4973 5.57719 18.4973 4.50991 17.839 3.85164L16.6471 2.65972C15.9888 2.00145 14.9215 2.00145 14.2632 2.65972L7.50905 9.4139C7.25116 9.6718 7.08386 10.0064 7.03229 10.3674L6.67471 12.8705C6.59525 13.4267 7.07202 13.9034 7.62824 13.824Z" stroke="white" stroke-width="1.5" stroke-linecap="round"/>
</svg>
