<svg width="24" height="25" viewBox="0 0 24 25" fill="none" xmlns="http://www.w3.org/2000/svg">
<g clip-path="url(#clip0_2_280)">
<path d="M23.1429 24.0486H22.2857C21.3764 24.0486 20.5044 23.6874 19.8614 23.0444C19.2184 22.4014 18.8572 21.5293 18.8572 20.62C18.8572 21.5293 18.496 22.4014 17.853 23.0444C17.21 23.6874 16.3379 24.0486 15.4286 24.0486C14.5193 24.0486 13.6472 23.6874 13.0042 23.0444C12.3613 22.4014 12 21.5293 12 20.62C12 21.5293 11.6388 22.4014 10.9958 23.0444C10.3528 23.6874 9.48078 24.0486 8.57146 24.0486C7.66215 24.0486 6.79008 23.6874 6.1471 23.0444C5.50412 22.4014 5.14289 21.5293 5.14289 20.62C5.14289 21.5293 4.78167 22.4014 4.13869 23.0444C3.49571 23.6874 2.62363 24.0486 1.71432 24.0486H0.857178M17.1429 17.1914C16.26 16.118 15.1503 15.2535 13.8936 14.6599C12.6368 14.0664 11.2642 13.7585 9.87432 13.7585C8.48445 13.7585 7.11184 14.0664 5.85509 14.6599C4.59834 15.2535 3.48865 16.118 2.60575 17.1914" stroke="black" stroke-width="1.71429" stroke-linecap="round" stroke-linejoin="round"/>
<path d="M11.1428 13.8485C11.2457 9.97423 12.4286 6.4428 15 5.17423M9.87427 1.91708C10.9855 1.69827 12.1384 1.9141 13.0952 2.5201C14.0521 3.12609 14.74 4.07607 15.0171 5.17423" stroke="black" stroke-width="1.71429" stroke-linecap="round" stroke-linejoin="round"/>
<path d="M21.2743 5.80851C20.4853 4.95655 19.4124 4.42198 18.2571 4.30518C17.1018 4.18839 15.9436 4.49742 15 5.17422" stroke="black" stroke-width="1.71429" stroke-linecap="round" stroke-linejoin="round"/>
<path d="M8.7085 7.00847C9.38024 6.01882 10.3759 5.29426 11.5242 4.95947C12.6725 4.62468 13.9016 4.70061 14.9999 5.17419C16.1016 5.44363 17.0555 6.13071 17.6601 7.09033C18.2646 8.04995 18.4725 9.20697 18.2399 10.317" stroke="black" stroke-width="1.71429" stroke-linecap="round" stroke-linejoin="round"/>
</g>
<defs>
<clipPath id="clip0_2_280">
<rect width="24" height="24" fill="white" transform="translate(0 0.939941)"/>
</clipPath>
</defs>
</svg>
