<svg width="22" height="23" viewBox="0 0 22 23" fill="none" xmlns="http://www.w3.org/2000/svg">
<path d="M11.0001 6.78404C8.56163 6.78404 6.59366 8.75201 6.59366 11.1905C6.59366 13.629 8.56163 15.5969 11.0001 15.5969C13.4386 15.5969 15.4065 13.629 15.4065 11.1905C15.4065 8.75201 13.4386 6.78404 11.0001 6.78404ZM11.0001 14.0544C9.42315 14.0544 8.13623 12.7674 8.13623 11.1905C8.13623 9.61353 9.42315 8.32662 11.0001 8.32662C12.5771 8.32662 13.864 9.61353 13.864 11.1905C13.864 12.7674 12.5771 14.0544 11.0001 14.0544ZM15.587 5.57662C15.0177 5.57662 14.5579 6.03638 14.5579 6.60572C14.5579 7.17505 15.0177 7.63482 15.587 7.63482C16.1564 7.63482 16.6161 7.1772 16.6161 6.60572C16.6163 6.47053 16.5898 6.33663 16.5381 6.2117C16.4865 6.08676 16.4107 5.97325 16.3151 5.87765C16.2195 5.78206 16.106 5.70626 15.981 5.65461C15.8561 5.60295 15.7222 5.57645 15.587 5.57662ZM19.5896 11.1905C19.5896 10.0045 19.6003 8.82935 19.5337 7.64556C19.4671 6.27056 19.1534 5.05025 18.148 4.04478C17.1403 3.03716 15.9222 2.72564 14.5472 2.65904C13.3612 2.59244 12.186 2.60318 11.0022 2.60318C9.81631 2.60318 8.64112 2.59244 7.45733 2.65904C6.08233 2.72564 4.86202 3.03931 3.85655 4.04478C2.84893 5.0524 2.53741 6.27056 2.47081 7.64556C2.4042 8.8315 2.41495 10.0067 2.41495 11.1905C2.41495 12.3743 2.4042 13.5516 2.47081 14.7354C2.53741 16.1104 2.85108 17.3307 3.85655 18.3362C4.86416 19.3438 6.08233 19.6553 7.45733 19.7219C8.64327 19.7885 9.81846 19.7778 11.0022 19.7778C12.1882 19.7778 13.3634 19.7885 14.5472 19.7219C15.9222 19.6553 17.1425 19.3417 18.148 18.3362C19.1556 17.3286 19.4671 16.1104 19.5337 14.7354C19.6024 13.5516 19.5896 12.3764 19.5896 11.1905ZM17.6989 16.2565C17.5421 16.6475 17.353 16.9397 17.0501 17.2405C16.7472 17.5434 16.4571 17.7325 16.0661 17.8893C14.936 18.3383 12.2526 18.2374 11.0001 18.2374C9.74756 18.2374 7.06202 18.3383 5.93194 17.8915C5.54092 17.7346 5.24873 17.5456 4.94795 17.2426C4.64502 16.9397 4.45596 16.6497 4.29913 16.2586C3.85225 15.1264 3.95323 12.443 3.95323 11.1905C3.95323 9.93794 3.85225 7.2524 4.29913 6.12232C4.45596 5.7313 4.64502 5.43912 4.94795 5.13833C5.25088 4.83755 5.54092 4.64634 5.93194 4.48951C7.06202 4.04263 9.74756 4.14361 11.0001 4.14361C12.2526 4.14361 14.9382 4.04263 16.0683 4.48951C16.4593 4.64634 16.7515 4.8354 17.0523 5.13833C17.3552 5.44126 17.5442 5.7313 17.7011 6.12232C18.148 7.2524 18.047 9.93794 18.047 11.1905C18.047 12.443 18.148 15.1264 17.6989 16.2565Z" fill="black"/>
</svg>
