<svg width="20" height="21" viewBox="0 0 20 21" fill="none" xmlns="http://www.w3.org/2000/svg">
<path d="M17.3504 1.44043H2.74531C1.94727 1.44043 1.25 2.01465 1.25 2.80332V17.4408C1.25 18.2338 1.94727 18.9404 2.74531 18.9404H17.3461C18.1484 18.9404 18.75 18.2291 18.75 17.4408V2.80332C18.7547 2.01465 18.1484 1.44043 17.3504 1.44043ZM6.67461 16.0275H4.16758V8.23262H6.67461V16.0275ZM5.50781 7.04746H5.48984C4.6875 7.04746 4.16797 6.4502 4.16797 5.70254C4.16797 4.94121 4.70117 4.35801 5.52148 4.35801C6.3418 4.35801 6.84375 4.93691 6.86172 5.70254C6.86133 6.4502 6.3418 7.04746 5.50781 7.04746ZM15.8371 16.0275H13.3301V11.7654C13.3301 10.7443 12.9652 10.0467 12.0582 10.0467C11.3652 10.0467 10.9551 10.5154 10.7727 10.9721C10.7043 11.1361 10.6859 11.3596 10.6859 11.5877V16.0275H8.17891V8.23262H10.6859V9.31738C11.0508 8.79785 11.6207 8.0502 12.9469 8.0502C14.5926 8.0502 15.8375 9.13496 15.8375 11.4736L15.8371 16.0275Z" fill="black"/>
</svg>
