<svg width="12" height="13" viewBox="0 0 12 13" fill="none" xmlns="http://www.w3.org/2000/svg">
<path d="M10.4761 1.94405C9.77708 1.24505 8.64508 1.24505 7.94608 1.94405L1.97008 7.92005C1.76708 8.12305 1.62408 8.37905 1.55808 8.65805L1.01008 10.959C0.980082 11.085 1.01808 11.219 1.11008 11.311C1.20208 11.403 1.33508 11.44 1.46208 11.41L3.76308 10.8621C4.04208 10.795 4.29808 10.653 4.50108 10.45L9.50008 5.45005C9.83908 5.79205 9.83808 6.34405 9.49708 6.68505L8.60508 7.57705C8.50508 7.67005 8.46408 7.81105 8.49808 7.94405C8.53208 8.07705 8.63508 8.18105 8.76808 8.21505C8.90108 8.24905 9.04208 8.20705 9.13508 8.10705L10.0271 7.21605C10.6611 6.58205 10.6621 5.55505 10.0301 4.92005L10.4761 4.47405C11.1751 3.77505 11.1751 2.64305 10.4761 1.94405ZM8.47608 2.47305C8.88208 2.06805 9.54008 2.06805 9.94608 2.47305C10.3521 2.87905 10.3521 3.53805 9.94608 3.94305L3.97108 9.91905C3.86508 10.024 3.73308 10.098 3.58908 10.132L1.88108 10.5391L2.28708 8.83105C2.32208 8.68605 2.39608 8.55405 2.50108 8.44905L8.47608 2.47305Z" fill="#EB6721"/>
</svg>
