<svg width="24" height="25" viewBox="0 0 24 25" fill="none" xmlns="http://www.w3.org/2000/svg">
<path d="M2.5 4.62988C2.5 4.21588 2.836 3.87988 3.25 3.87988H3.808C4.758 3.87988 5.328 4.51888 5.653 5.11288C5.87 5.50888 6.027 5.96788 6.15 6.38388C6.183 6.38088 6.217 6.37988 6.25 6.37988H18.748C19.578 6.37988 20.178 7.17388 19.95 7.97288L18.122 14.3819C17.785 15.5629 16.706 16.3779 15.478 16.3779H9.53C8.292 16.3779 7.206 15.5499 6.878 14.3559L6.118 11.5839L4.858 7.33588L4.857 7.32788C4.701 6.76088 4.555 6.22988 4.337 5.83388C4.128 5.44888 3.96 5.37988 3.809 5.37988H3.25C2.836 5.37988 2.5 5.04388 2.5 4.62988ZM7.573 11.2199L8.324 13.9589C8.474 14.5009 8.967 14.8779 9.53 14.8779H15.478C16.036 14.8779 16.527 14.5079 16.68 13.9709L18.417 7.87988H6.585L7.559 11.1669L7.573 11.2199ZM11 19.3799C11 20.4849 10.105 21.3799 9 21.3799C7.895 21.3799 7 20.4849 7 19.3799C7 18.2749 7.895 17.3799 9 17.3799C10.105 17.3799 11 18.2749 11 19.3799ZM9.5 19.3799C9.5 19.1039 9.276 18.8799 9 18.8799C8.724 18.8799 8.5 19.1039 8.5 19.3799C8.5 19.6559 8.724 19.8799 9 19.8799C9.276 19.8799 9.5 19.6559 9.5 19.3799ZM18 19.3799C18 20.4849 17.105 21.3799 16 21.3799C14.895 21.3799 14 20.4849 14 19.3799C14 18.2749 14.895 17.3799 16 17.3799C17.105 17.3799 18 18.2749 18 19.3799ZM16.5 19.3799C16.5 19.1039 16.276 18.8799 16 18.8799C15.724 18.8799 15.5 19.1039 15.5 19.3799C15.5 19.6559 15.724 19.8799 16 19.8799C16.276 19.8799 16.5 19.6559 16.5 19.3799Z" fill="#3B3DFF"/>
</svg>
