<svg width="24" height="25" viewBox="0 0 24 25" fill="none" xmlns="http://www.w3.org/2000/svg">
<path d="M11.9981 2.37793C13.2021 2.37793 14.3561 2.59093 15.4251 2.97993L14.2301 4.17393C10.5111 3.16293 6.57809 4.77893 4.64409 8.11293C2.71109 11.4459 3.26209 15.6639 5.98609 18.3889C8.71109 21.1139 12.9281 21.6659 16.2621 19.7339C19.5961 17.8019 21.2141 13.8689 20.2041 10.1499L21.3981 8.95593C21.7971 10.0529 22.0011 11.2119 22.0001 12.3799C22.0001 17.9039 17.5221 22.3819 11.9981 22.3819C6.47409 22.3819 1.99609 17.9039 1.99609 12.3799C1.99609 6.85593 6.47409 2.37793 11.9981 2.37793ZM11.9981 6.37993C12.5051 6.37993 13.0091 6.44393 13.5001 6.56993V8.13693C11.5181 7.43593 9.31509 8.19993 8.19309 9.97793C7.07209 11.7559 7.33009 14.0739 8.81709 15.5609C10.3031 17.0479 12.6201 17.3069 14.3991 16.1859C16.1771 15.0649 16.9421 12.8619 16.2421 10.8799H17.8091C18.4501 13.3639 17.4411 15.9809 15.2991 17.3919C13.1561 18.8019 10.3531 18.6939 8.32509 17.1229C6.29709 15.5519 5.49209 12.8649 6.32209 10.4379C7.15309 8.01093 9.43509 6.37993 12.0001 6.37993H11.9981ZM13.9981 12.3799C13.9981 13.2629 13.4191 14.0409 12.5741 14.2949C11.7281 14.5489 10.8161 14.2189 10.3301 13.4819C9.84309 12.7459 9.89609 11.7779 10.4611 11.0989C11.0261 10.4209 11.9691 10.1929 12.7811 10.5389L14.5011 8.81893L14.5001 5.62993C14.5001 5.43093 14.5791 5.24093 14.7201 5.09993L17.2201 2.59993C17.4341 2.38593 17.7571 2.32193 18.0371 2.43793C18.3171 2.55393 18.5001 2.82693 18.5001 3.12993V5.87993H21.2501C21.5531 5.87993 21.8261 6.06293 21.9421 6.34293C22.0581 6.62293 21.9941 6.94593 21.7801 7.15993L19.2801 9.65993C19.1391 9.80093 18.9491 9.87993 18.7501 9.87993H15.5601L13.8401 11.5999C13.9421 11.8399 13.9981 12.1029 13.9981 12.3799ZM18.4391 8.37993L19.4391 7.37993H17.7491C17.3351 7.37993 16.9991 7.04393 16.9991 6.62993V4.93993L16.0001 5.93993V8.32093C16.0211 8.33993 16.0411 8.35993 16.0591 8.38093H18.4391V8.37993Z" fill="#3B89FF"/>
</svg>
