<svg width="24" height="25" viewBox="0 0 24 25" fill="none" xmlns="http://www.w3.org/2000/svg">
<g clip-path="url(#clip0_2_347)">
<path d="M4.08798 6.79191C3.74398 6.34691 3.27498 6.01491 2.74098 5.83691L1.36298 5.38891C1.14598 5.31191 1.00098 5.10691 1.00098 4.87591C1.00098 4.64591 1.14598 4.44091 1.36298 4.36391L2.74098 3.91591C3.56698 3.63091 4.21598 2.98091 4.49998 2.15391L4.51098 2.11991L4.95998 0.742906C5.03598 0.524906 5.24198 0.378906 5.47298 0.378906C5.70498 0.378906 5.91098 0.524906 5.98698 0.742906L6.43398 2.11991C6.71698 2.96891 7.38298 3.63391 8.23198 3.91591L9.60998 4.36391L9.63798 4.37091C9.85498 4.44791 9.99998 4.65291 9.99998 4.88291C9.99998 5.11391 9.85498 5.31891 9.63798 5.39591L8.25998 5.84391C7.41098 6.12591 6.74398 6.79091 6.46098 7.63991L6.01298 9.01691C5.93598 9.23391 5.72998 9.37891 5.49998 9.37991C5.26898 9.37991 5.06398 9.23491 4.98698 9.01691L4.53898 7.63991C4.43798 7.33391 4.28598 7.04691 4.08898 6.79191H4.08798ZM11.783 10.5929L11.018 10.3449C10.546 10.1879 10.175 9.81791 10.018 9.34591L9.76998 8.58191C9.72798 8.46091 9.61298 8.37991 9.48498 8.37991C9.35698 8.37991 9.24198 8.46091 9.19998 8.58191L8.94998 9.34591C8.79698 9.81391 8.43298 10.1839 7.96698 10.3449L7.20198 10.5929C7.08098 10.6349 6.99998 10.7499 6.99998 10.8779C6.99998 11.0059 7.08098 11.1209 7.20198 11.1629L7.96698 11.4119C8.43998 11.5689 8.81098 11.9409 8.96698 12.4139L9.21498 13.1779C9.25698 13.2989 9.37198 13.3799 9.49998 13.3799C9.62798 13.3799 9.74298 13.2989 9.78498 13.1779L10.034 12.4139C10.191 11.9419 10.561 11.5719 11.033 11.4149L11.798 11.1669C11.919 11.1249 12 11.0099 12 10.8819C12 10.7539 11.919 10.6389 11.798 10.5969L11.783 10.5929ZM16.952 4.48791L11.864 9.57691L11.33 9.37891C11.247 9.35491 11.171 9.31091 11.11 9.24891C11.057 9.18491 11.02 9.10991 11 9.02891L10.824 8.49491L15.891 3.42791C17.288 2.02991 19.554 2.02991 20.951 3.42791C22.349 4.82491 22.349 7.08991 20.952 8.48791L20.06 9.37991C21.324 10.6499 21.322 12.7039 20.055 13.9709L18.271 15.7549C18.083 15.9499 17.804 16.0279 17.542 15.9589C17.279 15.8899 17.075 15.6859 17.006 15.4229C16.938 15.1609 17.016 14.8819 17.211 14.6939L18.994 12.9099C19.676 12.2289 19.679 11.1249 19 10.4399L9.00198 20.4399C8.59498 20.8459 8.08398 21.1319 7.52498 21.2649L2.92398 22.3599C2.67098 22.4209 2.40398 22.3449 2.21998 22.1609C2.03498 21.9769 1.95998 21.7099 2.01998 21.4569L3.11598 16.8559C3.24898 16.2959 3.53498 15.7859 3.94098 15.3789L7.08098 12.2389L7.61998 12.4089C7.70098 12.4419 7.77598 12.4889 7.83998 12.5489C7.90398 12.6139 7.95198 12.6929 7.97998 12.7789L8.14398 13.2969L5.00198 16.4399C4.79198 16.6499 4.64398 16.9139 4.57498 17.2029L3.76198 20.6189L7.17798 19.8059C7.46698 19.7359 7.73098 19.5889 7.94098 19.3789L19.891 7.42691C20.703 6.61491 20.702 5.29891 19.89 4.48791C19.079 3.67591 17.764 3.67591 16.952 4.48791Z" fill="#FF7E38"/>
</g>
<defs>
<clipPath id="clip0_2_347">
<rect width="24" height="24" fill="white" transform="translate(0 0.379883)"/>
</clipPath>
</defs>
</svg>
