<svg width="24" height="25" viewBox="0 0 24 25" fill="none" xmlns="http://www.w3.org/2000/svg">
<path d="M17.2119 2.61697C17.3369 2.22597 17.1239 1.80797 16.7339 1.67797C16.3449 1.54797 15.9239 1.75497 15.7889 2.14297L15.0389 4.39197C14.9139 4.78297 15.1269 5.20097 15.5169 5.33097C15.9059 5.46097 16.3269 5.25397 16.4619 4.86597L17.2119 2.61697ZM21.7799 2.59997C22.0719 2.89297 22.0719 3.36697 21.7799 3.65997L19.2799 6.15997C19.0929 6.36097 18.8109 6.44297 18.5459 6.37497C18.2799 6.30797 18.0719 6.09997 18.0049 5.83397C17.9369 5.56897 18.0189 5.28697 18.2199 5.09997L20.7199 2.59997C21.0129 2.30797 21.4869 2.30797 21.7799 2.59997ZM9.07592 4.69797C9.40892 4.00597 10.0619 3.52397 10.8209 3.40797C11.5799 3.29297 12.3469 3.55997 12.8709 4.12097L19.8769 11.627C20.3899 12.177 20.6059 12.941 20.4549 13.678C20.3049 14.416 19.8069 15.034 19.1189 15.339L15.6989 16.855C16.5649 18.869 15.6479 21.204 13.6439 22.092C11.6399 22.98 9.29492 22.089 8.38492 20.095L6.96792 20.723C6.30492 21.017 5.53092 20.884 5.00392 20.387L3.56492 19.03C2.99392 18.492 2.83692 17.646 3.17792 16.939L9.07592 4.69797ZM9.75792 19.487C10.3449 20.701 11.7889 21.231 13.0209 20.685C14.2539 20.139 14.8319 18.713 14.3269 17.463L9.75692 19.487H9.75792ZM11.7739 5.14497C11.5879 4.94597 11.3159 4.85097 11.0469 4.89197C10.7779 4.93297 10.5459 5.10397 10.4279 5.34897L4.52992 17.59C4.47292 17.708 4.49892 17.849 4.59392 17.939L6.03292 19.295C6.12092 19.378 6.24992 19.4 6.35992 19.351L18.5109 13.968C18.7549 13.86 18.9319 13.641 18.9859 13.379C19.0389 13.118 18.9629 12.846 18.7809 12.651L11.7739 5.14497ZM18.9999 8.62897C18.9999 8.21497 19.3359 7.87897 19.7499 7.87897H21.7499C22.1639 7.87897 22.4999 8.21497 22.4999 8.62897C22.4999 9.04297 22.1639 9.37897 21.7499 9.37897H19.7499C19.3359 9.37897 18.9999 9.04297 18.9999 8.62897Z" fill="#FFAF38"/>
</svg>
