<svg width="24" height="25" viewBox="0 0 24 25" fill="none" xmlns="http://www.w3.org/2000/svg">
<g clip-path="url(#clip0_2_380)">
<path d="M20.998 6.40967C20.998 4.61467 19.543 3.15967 17.748 3.15967H6.25C4.455 3.15967 3 4.61467 3 6.40967V17.9087C3 19.7037 4.455 21.1587 6.25 21.1587H11.164L11.52 19.7347L11.54 19.6587H6.25C6.046 19.6587 5.85 19.6237 5.668 19.5587L11.475 13.8737L11.558 13.8037C11.854 13.5877 12.262 13.6177 12.524 13.8737L14.603 15.9097L15.663 14.8497L13.573 12.8017L13.445 12.6857C12.558 11.9417 11.252 11.9917 10.425 12.8017L4.603 18.5017C4.535 18.3117 4.5 18.1107 4.5 17.9087V6.40867C4.5 5.44267 5.283 4.65867 6.25 4.65867H17.749C18.715 4.65867 19.499 5.44267 19.499 6.40867V11.3917C19.977 11.2017 20.492 11.1277 20.999 11.1717V6.40967H20.998ZM17.503 8.91167C17.503 7.66767 16.495 6.65967 15.251 6.65967C14.007 6.65967 12.999 7.66767 12.999 8.91167C12.999 10.1557 14.007 11.1637 15.251 11.1637C16.495 11.1637 17.503 10.1557 17.503 8.91167ZM14.499 8.91167C14.499 8.49667 14.836 8.15967 15.251 8.15967C15.666 8.15967 16.003 8.49667 16.003 8.91167C16.003 9.32667 15.666 9.66367 15.251 9.66367C14.836 9.66367 14.499 9.32667 14.499 8.91167ZM19.099 12.8287L13.197 18.7297C12.853 19.0737 12.608 19.5057 12.49 19.9777L12.033 21.8077C11.833 22.6047 12.555 23.3257 13.351 23.1267L15.181 22.6687C15.653 22.5507 16.085 22.3067 16.429 21.9627L22.33 16.0597C23.199 15.1627 23.188 13.7347 22.305 12.8517C21.421 11.9697 19.993 11.9587 19.097 12.8277L19.099 12.8287Z" fill="#FF08CE"/>
</g>
<defs>
<clipPath id="clip0_2_380">
<rect width="24" height="24" fill="white" transform="translate(0 0.159668)"/>
</clipPath>
</defs>
</svg>
