<svg width="24" height="25" viewBox="0 0 24 25" fill="none" xmlns="http://www.w3.org/2000/svg">
<path d="M6.25 2.15967C5.007 2.15967 4 3.16667 4 4.40967V19.9097C4 21.1527 5.007 22.1597 6.25 22.1597H13.75C14.984 22.1597 15.988 21.1647 16 19.9307V18.4107C16 17.9967 15.664 17.6607 15.25 17.6607C14.797 17.6607 14.511 17.5377 14.314 17.3787C14.106 17.2117 13.934 16.9537 13.803 16.5897C13.53 15.8347 13.501 14.8397 13.501 13.9097C13.501 13.7197 13.429 13.5367 13.299 13.3977L13.134 13.2207C13.08 13.1607 13.023 13.1027 12.964 13.0477C12.89 12.9777 12.664 12.7627 11.781 11.8797C11.312 11.4107 11.053 11.0147 10.968 10.7117C10.934 10.6067 10.928 10.4947 10.952 10.3867C10.99 10.2627 11.061 10.1507 11.157 10.0637C11.244 9.96767 11.355 9.89667 11.479 9.85967C11.586 9.83567 11.698 9.84167 11.803 9.87567C12.105 9.96067 12.501 10.2217 12.97 10.6907C13.51 11.2307 14.023 11.7367 14.482 12.1907C15.242 12.9427 15.855 13.5507 16.202 13.9207C16.485 14.2207 16.958 14.2367 17.259 13.9547C17.561 13.6737 17.579 13.2007 17.299 12.8977C16.873 12.4527 16.44 12.0147 16 11.5837V8.21967L18.841 11.0617C19.263 11.4837 19.501 12.0557 19.501 12.6517V21.4097C19.501 21.8237 19.837 22.1597 20.251 22.1597C20.665 22.1597 21.001 21.8237 21.001 21.4097V12.6527C21.001 11.6577 20.606 10.7037 19.902 10.0007L16 6.09867V4.40867C15.999 3.16667 14.992 2.15967 13.75 2.15967H6.25ZM12.392 17.0997C12.489 17.3677 12.614 17.6337 12.776 17.8817C11.996 18.2557 11.5 19.0447 11.5 19.9097V20.6597H8.5V19.9097C8.5 18.6667 7.493 17.6597 6.25 17.6597H5.5V6.65967H6.25C7.493 6.65967 8.5 5.65267 8.5 4.40967V3.65967H11.5V4.40967C11.5 5.65267 12.507 6.65967 13.75 6.65967H14.5V10.0977L14.031 9.62967C13.5 9.09867 12.883 8.62167 12.21 8.43167C11.851 8.32567 11.47 8.31667 11.106 8.40667C10.881 8.46567 10.667 8.56167 10.474 8.69167C8.919 8.47967 7.413 9.32867 6.789 10.7687C6.165 12.2097 6.577 13.8887 7.796 14.8777C9.015 15.8667 10.743 15.9227 12.024 15.0157C12.061 15.6997 12.154 16.4427 12.392 17.0997ZM8 12.1597C8 11.2647 8.595 10.4777 9.456 10.2347C9.417 10.5307 9.441 10.8317 9.524 11.1177C9.713 11.7907 10.189 12.4087 10.721 12.9407L11.386 13.6027C10.808 14.1587 9.954 14.3147 9.216 14.0007C8.478 13.6867 8 12.9617 8 12.1597ZM5.5 4.40967C5.5 3.99567 5.836 3.65967 6.25 3.65967H7V4.40967C7 4.82367 6.664 5.15967 6.25 5.15967H5.5V4.40967ZM13 3.65967H13.75C14.164 3.65967 14.5 3.99567 14.5 4.40967V5.15967H13.75C13.336 5.15967 13 4.82367 13 4.40967V3.65967ZM14.5 19.1597V19.9097C14.5 20.3237 14.164 20.6597 13.75 20.6597H13V19.9097C13 19.4957 13.336 19.1597 13.75 19.1597H14.5ZM7 20.6597H6.25C5.836 20.6597 5.5 20.3237 5.5 19.9097V19.1597H6.25C6.664 19.1597 7 19.4957 7 19.9097V20.6597Z" fill="#BA42FF"/>
</svg>
