<svg width="110" height="14" viewBox="0 0 110 14" fill="none" xmlns="http://www.w3.org/2000/svg">
<g clip-path="url(#clip0_178_2350)">
<path fill-rule="evenodd" clip-rule="evenodd" d="M7 0.2771C6.80295 0.277187 6.60998 0.333253 6.44356 0.438769C6.27714 0.544286 6.14412 0.69491 6.06 0.8731L4.472 4.0781C4.4678 4.08566 4.4638 4.09333 4.46 4.1011C4.4523 4.10225 4.44463 4.10358 4.437 4.1051L0.939998 4.6231C0.741675 4.64235 0.553057 4.71817 0.396585 4.84154C0.240113 4.96491 0.122374 5.13063 0.0573765 5.31898C-0.00762122 5.50734 -0.0171416 5.7104 0.0299481 5.90401C0.0770377 6.09763 0.178755 6.27363 0.322998 6.4111L2.883 8.8801L2.889 8.8851C2.89262 8.8885 2.89533 8.89275 2.8969 8.89746C2.89847 8.90218 2.89885 8.90721 2.898 8.9121V8.9161L2.288 12.4841C2.25452 12.6776 2.27594 12.8775 2.34984 13.0594C2.42373 13.2413 2.54715 13.3988 2.70606 13.5141C2.86498 13.6294 3.05303 13.6978 3.24887 13.7116C3.44471 13.7254 3.6405 13.684 3.814 13.5921L6.964 11.9271C6.97535 11.9221 6.98761 11.9196 7 11.9196C7.01239 11.9196 7.02464 11.9221 7.036 11.9271L10.186 13.5911C10.3594 13.6836 10.5553 13.7255 10.7514 13.712C10.9475 13.6986 11.1358 13.6304 11.295 13.5151C11.4541 13.3998 11.5777 13.2421 11.6516 13.06C11.7255 12.8779 11.7468 12.6787 11.713 12.4851L11.103 8.9151V8.9121C11.101 8.9081 11.102 8.9021 11.103 8.8981C11.1045 8.89315 11.1073 8.88867 11.111 8.8851L11.117 8.8801L13.676 6.4101C13.8199 6.27259 13.9214 6.09665 13.9683 5.9032C14.0152 5.70974 14.0056 5.50688 13.9406 5.31872C13.8756 5.13056 13.758 4.96499 13.6018 4.84169C13.4455 4.71838 13.2571 4.64252 13.059 4.6231L9.563 4.1051C9.55537 4.10358 9.5477 4.10225 9.54 4.1011C9.5362 4.09333 9.5322 4.08566 9.528 4.0781L7.94 0.8731C7.85587 0.69491 7.72286 0.544286 7.55644 0.438769C7.39002 0.333253 7.19705 0.277187 7 0.2771Z" fill="#F6E649"/>
</g>
<g clip-path="url(#clip1_178_2350)">
<path fill-rule="evenodd" clip-rule="evenodd" d="M31 0.2771C30.8029 0.277187 30.61 0.333253 30.4436 0.438769C30.2771 0.544286 30.1441 0.69491 30.06 0.8731L28.472 4.0781C28.4678 4.08566 28.4638 4.09333 28.46 4.1011C28.4523 4.10225 28.4446 4.10358 28.437 4.1051L24.94 4.6231C24.7417 4.64235 24.5531 4.71817 24.3966 4.84154C24.2401 4.96491 24.1224 5.13063 24.0574 5.31898C23.9924 5.50734 23.9829 5.7104 24.0299 5.90401C24.077 6.09763 24.1788 6.27363 24.323 6.4111L26.883 8.8801L26.889 8.8851C26.8926 8.8885 26.8953 8.89275 26.8969 8.89746C26.8985 8.90218 26.8989 8.90721 26.898 8.9121V8.9161L26.288 12.4841C26.2545 12.6776 26.2759 12.8775 26.3498 13.0594C26.4237 13.2413 26.5471 13.3988 26.7061 13.5141C26.865 13.6294 27.053 13.6978 27.2489 13.7116C27.4447 13.7254 27.6405 13.684 27.814 13.5921L30.964 11.9271C30.9754 11.9221 30.9876 11.9196 31 11.9196C31.0124 11.9196 31.0246 11.9221 31.036 11.9271L34.186 13.5911C34.3594 13.6836 34.5553 13.7255 34.7514 13.712C34.9475 13.6986 35.1358 13.6304 35.295 13.5151C35.4541 13.3998 35.5777 13.2421 35.6516 13.06C35.7255 12.8779 35.7468 12.6787 35.713 12.4851L35.103 8.9151V8.9121C35.101 8.9081 35.102 8.9021 35.103 8.8981C35.1045 8.89315 35.1073 8.88867 35.111 8.8851L35.117 8.8801L37.676 6.4101C37.8199 6.27259 37.9214 6.09665 37.9683 5.9032C38.0152 5.70974 38.0056 5.50688 37.9406 5.31872C37.8756 5.13056 37.758 4.96499 37.6018 4.84169C37.4455 4.71838 37.2571 4.64252 37.059 4.6231L33.563 4.1051C33.5554 4.10358 33.5477 4.10225 33.54 4.1011C33.5362 4.09333 33.5322 4.08566 33.528 4.0781L31.94 0.8731C31.8559 0.69491 31.7229 0.544286 31.5564 0.438769C31.39 0.333253 31.197 0.277187 31 0.2771Z" fill="#F6E649"/>
</g>
<g clip-path="url(#clip2_178_2350)">
<path fill-rule="evenodd" clip-rule="evenodd" d="M55 0.2771C54.8029 0.277187 54.61 0.333253 54.4436 0.438769C54.2771 0.544286 54.1441 0.69491 54.06 0.8731L52.472 4.0781C52.4678 4.08566 52.4638 4.09333 52.46 4.1011C52.4523 4.10225 52.4446 4.10358 52.437 4.1051L48.94 4.6231C48.7417 4.64235 48.5531 4.71817 48.3966 4.84154C48.2401 4.96491 48.1224 5.13063 48.0574 5.31898C47.9924 5.50734 47.9829 5.7104 48.0299 5.90401C48.077 6.09763 48.1788 6.27363 48.323 6.4111L50.883 8.8801L50.889 8.8851C50.8926 8.8885 50.8953 8.89275 50.8969 8.89746C50.8985 8.90218 50.8989 8.90721 50.898 8.9121V8.9161L50.288 12.4841C50.2545 12.6776 50.2759 12.8775 50.3498 13.0594C50.4237 13.2413 50.5471 13.3988 50.7061 13.5141C50.865 13.6294 51.053 13.6978 51.2489 13.7116C51.4447 13.7254 51.6405 13.684 51.814 13.5921L54.964 11.9271C54.9754 11.9221 54.9876 11.9196 55 11.9196C55.0124 11.9196 55.0246 11.9221 55.036 11.9271L58.186 13.5911C58.3594 13.6836 58.5553 13.7255 58.7514 13.712C58.9475 13.6986 59.1358 13.6304 59.295 13.5151C59.4541 13.3998 59.5777 13.2421 59.6516 13.06C59.7255 12.8779 59.7468 12.6787 59.713 12.4851L59.103 8.9151V8.9121C59.101 8.9081 59.102 8.9021 59.103 8.8981C59.1045 8.89315 59.1073 8.88867 59.111 8.8851L59.117 8.8801L61.676 6.4101C61.8199 6.27259 61.9214 6.09665 61.9683 5.9032C62.0152 5.70974 62.0056 5.50688 61.9406 5.31872C61.8756 5.13056 61.758 4.96499 61.6018 4.84169C61.4455 4.71838 61.2571 4.64252 61.059 4.6231L57.563 4.1051C57.5554 4.10358 57.5477 4.10225 57.54 4.1011C57.5362 4.09333 57.5322 4.08566 57.528 4.0781L55.94 0.8731C55.8559 0.69491 55.7229 0.544286 55.5564 0.438769C55.39 0.333253 55.197 0.277187 55 0.2771Z" fill="#F6E649"/>
</g>
<g clip-path="url(#clip3_178_2350)">
<path fill-rule="evenodd" clip-rule="evenodd" d="M79 0.2771C78.8029 0.277187 78.61 0.333253 78.4436 0.438769C78.2771 0.544286 78.1441 0.69491 78.06 0.8731L76.472 4.0781C76.4678 4.08566 76.4638 4.09333 76.46 4.1011C76.4523 4.10225 76.4446 4.10358 76.437 4.1051L72.94 4.6231C72.7417 4.64235 72.5531 4.71817 72.3966 4.84154C72.2401 4.96491 72.1224 5.13063 72.0574 5.31898C71.9924 5.50734 71.9829 5.7104 72.0299 5.90401C72.077 6.09763 72.1788 6.27363 72.323 6.4111L74.883 8.8801L74.889 8.8851C74.8926 8.8885 74.8953 8.89275 74.8969 8.89746C74.8985 8.90218 74.8989 8.90721 74.898 8.9121V8.9161L74.288 12.4841C74.2545 12.6776 74.2759 12.8775 74.3498 13.0594C74.4237 13.2413 74.5471 13.3988 74.7061 13.5141C74.865 13.6294 75.053 13.6978 75.2489 13.7116C75.4447 13.7254 75.6405 13.684 75.814 13.5921L78.964 11.9271C78.9754 11.9221 78.9876 11.9196 79 11.9196C79.0124 11.9196 79.0246 11.9221 79.036 11.9271L82.186 13.5911C82.3594 13.6836 82.5553 13.7255 82.7514 13.712C82.9475 13.6986 83.1358 13.6304 83.295 13.5151C83.4541 13.3998 83.5777 13.2421 83.6516 13.06C83.7255 12.8779 83.7468 12.6787 83.713 12.4851L83.103 8.9151V8.9121C83.101 8.9081 83.102 8.9021 83.103 8.8981C83.1045 8.89315 83.1073 8.88867 83.111 8.8851L83.117 8.8801L85.676 6.4101C85.8199 6.27259 85.9214 6.09665 85.9683 5.9032C86.0152 5.70974 86.0056 5.50688 85.9406 5.31872C85.8756 5.13056 85.758 4.96499 85.6018 4.84169C85.4455 4.71838 85.2571 4.64252 85.059 4.6231L81.563 4.1051C81.5554 4.10358 81.5477 4.10225 81.54 4.1011C81.5362 4.09333 81.5322 4.08566 81.528 4.0781L79.94 0.8731C79.8559 0.69491 79.7229 0.544286 79.5564 0.438769C79.39 0.333253 79.197 0.277187 79 0.2771Z" fill="#F6E649"/>
</g>
<g clip-path="url(#clip4_178_2350)">
<path fill-rule="evenodd" clip-rule="evenodd" d="M103 0.2771C102.803 0.277187 102.61 0.333253 102.444 0.438769C102.277 0.544286 102.144 0.69491 102.06 0.8731L100.472 4.0781C100.468 4.08566 100.464 4.09333 100.46 4.1011C100.452 4.10225 100.445 4.10358 100.437 4.1051L96.94 4.6231C96.7417 4.64235 96.5531 4.71817 96.3966 4.84154C96.2401 4.96491 96.1224 5.13063 96.0574 5.31898C95.9924 5.50734 95.9829 5.7104 96.0299 5.90401C96.077 6.09763 96.1788 6.27363 96.323 6.4111L98.883 8.8801L98.889 8.8851C98.8926 8.8885 98.8953 8.89275 98.8969 8.89746C98.8985 8.90218 98.8989 8.90721 98.898 8.9121V8.9161L98.288 12.4841C98.2545 12.6776 98.2759 12.8775 98.3498 13.0594C98.4237 13.2413 98.5471 13.3988 98.7061 13.5141C98.865 13.6294 99.053 13.6978 99.2489 13.7116C99.4447 13.7254 99.6405 13.684 99.814 13.5921L102.964 11.9271C102.975 11.9221 102.988 11.9196 103 11.9196C103.012 11.9196 103.025 11.9221 103.036 11.9271L106.186 13.5911C106.359 13.6836 106.555 13.7255 106.751 13.712C106.947 13.6986 107.136 13.6304 107.295 13.5151C107.454 13.3998 107.578 13.2421 107.652 13.06C107.726 12.8779 107.747 12.6787 107.713 12.4851L107.103 8.9151V8.9121C107.101 8.9081 107.102 8.9021 107.103 8.8981C107.105 8.89315 107.107 8.88867 107.111 8.8851L107.117 8.8801L109.676 6.4101C109.82 6.27259 109.921 6.09665 109.968 5.9032C110.015 5.70974 110.006 5.50688 109.941 5.31872C109.876 5.13056 109.758 4.96499 109.602 4.84169C109.445 4.71838 109.257 4.64252 109.059 4.6231L105.563 4.1051C105.555 4.10358 105.548 4.10225 105.54 4.1011C105.536 4.09333 105.532 4.08566 105.528 4.0781L103.94 0.8731C103.856 0.69491 103.723 0.544286 103.556 0.438769C103.39 0.333253 103.197 0.277187 103 0.2771Z" fill="#F6E649"/>
</g>
<defs>
<clipPath id="clip0_178_2350">
<rect width="14" height="14" fill="white"/>
</clipPath>
<clipPath id="clip1_178_2350">
<rect width="14" height="14" fill="white" transform="translate(24)"/>
</clipPath>
<clipPath id="clip2_178_2350">
<rect width="14" height="14" fill="white" transform="translate(48)"/>
</clipPath>
<clipPath id="clip3_178_2350">
<rect width="14" height="14" fill="white" transform="translate(72)"/>
</clipPath>
<clipPath id="clip4_178_2350">
<rect width="14" height="14" fill="white" transform="translate(96)"/>
</clipPath>
</defs>
</svg>
