<svg width="24" height="25" viewBox="0 0 24 25" fill="none" xmlns="http://www.w3.org/2000/svg">
<path fill-rule="evenodd" clip-rule="evenodd" d="M12.4222 2.83106C13.4456 2.81543 14.4612 2.82323 15.4768 2.81543C15.5393 4.01074 15.969 5.22947 16.8439 6.0732C17.7188 6.94038 18.9532 7.33882 20.1562 7.47162V10.62C19.0313 10.581 17.8985 10.3466 16.8751 9.86222C16.4298 9.65909 16.0158 9.40127 15.6096 9.13566C15.6018 11.4169 15.6174 13.6981 15.594 15.9715C15.5314 17.0652 15.1721 18.1512 14.5393 19.0496C13.5159 20.5496 11.7426 21.5261 9.92231 21.5574C8.80519 21.6199 7.68804 21.3152 6.73495 20.7527C5.15691 19.823 4.04756 18.1199 3.88352 16.2918C3.86789 15.9012 3.86009 15.5106 3.87569 15.1278C4.01632 13.6434 4.75066 12.2216 5.89125 11.2528C7.18805 10.1278 9.00047 9.58877 10.6957 9.90909C10.7113 11.0653 10.6645 12.2216 10.6645 13.3778C9.89105 13.1278 8.98486 13.1981 8.30519 13.6669C7.81303 13.9872 7.43805 14.4793 7.24275 15.034C7.07869 15.4325 7.12556 15.87 7.13337 16.2918C7.32087 17.5731 8.55518 18.6512 9.86763 18.534C10.7426 18.5262 11.5785 18.0184 12.0316 17.2762C12.18 17.0184 12.3441 16.7528 12.3519 16.4481C12.43 15.0496 12.3988 13.659 12.4066 12.2606C12.4144 9.11222 12.3988 5.97164 12.4222 2.83106Z" fill="black"/>
</svg>
