<svg width="24" height="24" viewBox="0 0 24 24" fill="none" xmlns="http://www.w3.org/2000/svg">
<g clip-path="url(#clip0_2_247)">
<path d="M12.0001 23.1429C18.0001 23.1429 22.2858 21.0206 22.2858 16.296C22.2858 11.1617 19.7144 7.73832 14.5715 5.17032L16.5944 2.56803C16.6974 2.39734 16.7533 2.20238 16.7565 2.00303C16.7596 1.80368 16.7099 1.60705 16.6123 1.43318C16.5148 1.2593 16.3729 1.1144 16.2011 1.01321C16.0293 0.912031 15.8337 0.858191 15.6344 0.857178H8.36578C8.16683 0.859246 7.97194 0.913742 7.80077 1.01517C7.6296 1.1166 7.4882 1.26137 7.39084 1.43488C7.29348 1.6084 7.24359 1.80452 7.24622 2.00346C7.24884 2.20241 7.30388 2.39715 7.40578 2.56803L9.42864 5.18746C4.28578 7.77261 1.71436 11.196 1.71436 16.3303C1.71436 21.0206 6.00007 23.1429 12.0001 23.1429Z" stroke="black" stroke-width="1.71429" stroke-linecap="round" stroke-linejoin="round"/>
<path d="M14.3708 11.6675C14.243 11.305 14.0059 10.991 13.692 10.769C13.3782 10.547 13.0032 10.4279 12.6188 10.4281H11.1822C10.7729 10.4273 10.3778 10.578 10.0729 10.8511C9.76799 11.1242 9.57493 11.5004 9.53087 11.9074C9.48682 12.3143 9.59488 12.7232 9.83425 13.0552C10.0736 13.3873 10.4274 13.619 10.8274 13.7058L13.0165 14.1858C13.4626 14.2853 13.8564 14.5457 14.1226 14.9172C14.3888 15.2887 14.5087 15.7453 14.4595 16.1996C14.4103 16.654 14.1954 17.0743 13.8558 17.3802C13.5162 17.6861 13.0758 17.8561 12.6188 17.8578H11.3828C10.5737 17.8578 9.88624 17.3401 9.63081 16.6201M12 10.4281V8.57153M12 19.7144V17.8578" stroke="black" stroke-width="1.71429" stroke-linecap="round" stroke-linejoin="round"/>
</g>
<defs>
<clipPath id="clip0_2_247">
<rect width="24" height="24" fill="white"/>
</clipPath>
</defs>
</svg>
