<svg width="24" height="25" viewBox="0 0 24 25" fill="none" xmlns="http://www.w3.org/2000/svg">
<g clip-path="url(#clip0_2_260)">
<path d="M21.4491 13.3636C21.4491 15.3979 20.8459 17.3866 19.7157 19.078C18.5855 20.7695 16.979 22.0879 15.0996 22.8664C13.2201 23.6449 11.152 23.8485 9.15676 23.4517C7.16153 23.0548 5.32879 22.0752 3.89031 20.6367C2.45182 19.1982 1.4722 17.3655 1.07533 15.3702C0.678451 13.375 0.882142 11.3069 1.66064 9.42742C2.43914 7.54795 3.75749 5.94155 5.44897 4.81134C7.14045 3.68113 9.12908 3.07788 11.1634 3.07788M0.87769 13.3636H12.7457" stroke="black" stroke-width="1.71429" stroke-linecap="round" stroke-linejoin="round"/>
<path d="M11.1634 3.07788C8.78689 5.99999 7.40127 9.60215 7.20679 13.3636C7.40127 17.125 8.78689 20.7272 11.1634 23.6493C13.0261 21.3585 14.2882 18.6393 14.8354 15.7379" stroke="black" stroke-width="1.71429" stroke-linecap="round" stroke-linejoin="round"/>
<path d="M12.6924 7.37569C12.0924 7.27284 12.0924 6.40884 12.6924 6.30427C13.7581 6.11915 14.7446 5.62079 15.5259 4.87276C16.3072 4.12472 16.848 3.16092 17.0793 2.10427L17.1136 1.93798C17.2456 1.34312 18.0907 1.33798 18.2279 1.93284L18.2707 2.12655C18.5109 3.17842 19.0566 4.13584 19.8393 4.87853C20.6219 5.62122 21.6066 6.11604 22.6696 6.30084C23.273 6.40541 23.273 7.27455 22.6696 7.38084C21.6066 7.56563 20.6219 8.06046 19.8393 8.80315C19.0566 9.54583 18.5109 10.5033 18.2707 11.5551L18.2279 11.7471C18.0907 12.3403 17.2456 12.3368 17.1136 11.742L17.0793 11.5774C16.848 10.5208 16.3072 9.55695 15.5259 8.80892C14.7446 8.06088 13.7581 7.56081 12.6924 7.37569Z" stroke="black" stroke-width="1.71429" stroke-linecap="round" stroke-linejoin="round"/>
</g>
<defs>
<clipPath id="clip0_2_260">
<rect width="24" height="24" fill="white" transform="translate(0 0.570068)"/>
</clipPath>
</defs>
</svg>
