<svg xmlns="http://www.w3.org/2000/svg" xmlns:xlink="http://www.w3.org/1999/xlink" viewBox="0 0 48 48"><path d="M 23.984 3.932 C 23.116 3.932 22.244 4.104 21.424 4.446 L 3.558 11.834 C 2.552 12.25 2.578 13.65 3.582 14.066 L 21.546 21.182 C 23.12 21.82 24.88 21.82 26.454 21.182 L 44.418 14.066 C 45.424 13.674 45.424 12.25 44.442 11.834 L 26.528 4.446 C 25.723 4.106 24.858 3.931 23.984 3.932 Z" fill="rgb(255, 205, 41)"></path><path d="M 46.8 16.112 C 46.648 16.113 46.497 16.144 46.356 16.202 L 26.332 23.956 C 25.874 24.144 25.574 24.589 25.572 25.084 L 25.572 42.876 C 25.576 43.271 25.774 43.64 26.102 43.86 C 26.431 44.081 26.846 44.126 27.214 43.98 L 47.24 36.2 C 47.7 36.029 48.004 35.589 48 35.098 L 48 17.306 C 47.996 16.646 47.46 16.114 46.8 16.114 Z" fill="rgb(39, 185, 230)"></path><path d="M 1.352 16.19 C 0.993 16.177 0.645 16.315 0.392 16.57 C 0.172 16.792 0 17.06 0 17.38 L 0 34.09 C 0 34.974 1.03 35.564 1.816 35.17 L 14.356 29.158 L 14.97 28.864 L 20.908 25.992 C 21.84 25.552 21.768 24.176 20.786 23.808 L 1.766 16.276 C 1.635 16.221 1.494 16.191 1.352 16.188 Z" fill="rgb(255, 77, 0)"></path></svg>