<svg xmlns="http://www.w3.org/2000/svg" xmlns:xlink="http://www.w3.org/1999/xlink" viewBox="0 0 48 48"><path d="M 45.68 5.996 L 45.68 41.994 C 45.697 45.288 43.04 47.972 39.746 47.99 C 39.5 47.992 39.254 47.979 39.01 47.95 C 35.955 47.497 33.716 44.838 33.79 41.75 L 33.79 6.24 C 33.717 3.149 35.961 0.489 39.02 0.04 C 40.717 -0.158 42.417 0.38 43.69 1.519 C 44.963 2.658 45.687 4.288 45.678 5.996 Z" fill="rgb(255, 205, 41)"></path><path d="M 8.266 36.11 C 6.116 36.071 4.112 37.195 3.026 39.051 C 1.939 40.906 1.939 43.204 3.026 45.059 C 4.112 46.915 6.116 48.039 8.266 48 C 11.507 47.941 14.103 45.296 14.103 42.055 C 14.103 38.814 11.507 36.169 8.266 36.11 Z" fill="rgb(237, 160, 17)"></path><path d="M 24.01 18.09 L 23.91 18.09 C 20.61 18.271 18.05 21.038 18.126 24.342 L 18.126 40.312 C 18.126 44.646 20.034 47.276 22.826 47.838 C 24.58 48.194 26.402 47.742 27.786 46.607 C 29.171 45.472 29.971 43.774 29.966 41.984 L 29.966 24.066 C 29.969 22.484 29.343 20.965 28.226 19.844 C 27.109 18.724 25.592 18.093 24.01 18.09 Z" fill="rgb(255, 181, 42)"></path></svg>