<svg xmlns="http://www.w3.org/2000/svg" xmlns:xlink="http://www.w3.org/1999/xlink" viewBox="0 0 48 48"><path d="M 4.816 28.976 C 2.07 28.976 0 26.8 0 24.116 C 0 21.424 1.964 19.23 4.816 19.23 C 6.332 19.23 7.38 19.696 8.198 20.76 L 6.878 21.86 C 6.353 21.279 5.601 20.956 4.818 20.976 C 2.958 20.976 1.938 22.398 1.938 24.116 C 1.938 25.836 3.056 27.23 4.818 27.23 C 5.644 27.23 6.348 26.936 6.904 26.344 L 8.206 27.49 C 7.424 28.51 6.348 28.976 4.816 28.976 Z M 13.896 21.826 L 15.676 21.826 L 15.676 28.806 L 13.896 28.806 L 13.896 27.786 C 13.526 28.51 12.91 28.994 11.73 28.994 C 9.844 28.994 8.34 27.354 8.34 25.342 C 8.34 23.328 9.844 21.692 11.73 21.692 C 12.9 21.692 13.526 22.174 13.896 22.9 Z M 13.948 25.342 C 13.948 24.25 13.2 23.346 12.02 23.346 C 10.884 23.346 10.144 24.26 10.144 25.342 C 10.144 26.398 10.884 27.338 12.02 27.338 C 13.192 27.338 13.948 26.426 13.948 25.342 Z M 16.934 19.006 L 18.714 19.006 L 18.714 28.796 L 16.934 28.796 Z M 19.504 27.874 C 19.505 27.589 19.62 27.317 19.824 27.118 C 20.028 26.92 20.303 26.812 20.588 26.818 C 21.214 26.818 21.654 27.302 21.654 27.874 C 21.659 28.159 21.549 28.434 21.348 28.637 C 21.147 28.839 20.873 28.951 20.588 28.948 C 20.301 28.952 20.024 28.841 19.82 28.639 C 19.616 28.437 19.502 28.161 19.504 27.874 Z M 28.46 27.678 C 27.8 28.484 26.796 28.994 25.608 28.994 C 24.631 29.012 23.689 28.635 22.995 27.946 C 22.302 27.258 21.917 26.319 21.928 25.342 C 21.928 23.328 23.484 21.692 25.608 21.692 C 26.752 21.692 27.748 22.174 28.408 22.936 L 27.034 24.09 C 26.69 23.66 26.242 23.338 25.608 23.338 C 24.472 23.338 23.732 24.25 23.732 25.334 C 23.732 26.416 24.472 27.328 25.608 27.328 C 26.294 27.328 26.768 26.97 27.122 26.488 Z M 28.61 25.342 C 28.61 23.328 30.17 21.692 32.29 21.692 C 34.412 21.692 35.97 23.328 35.97 25.342 C 35.981 26.319 35.596 27.258 34.903 27.946 C 34.209 28.635 33.267 29.012 32.29 28.994 C 30.17 28.984 28.61 27.354 28.61 25.342 Z M 34.166 25.342 C 34.166 24.25 33.426 23.346 32.29 23.346 C 31.154 23.338 30.416 24.25 30.416 25.342 C 30.416 26.426 31.156 27.338 32.29 27.338 C 33.426 27.338 34.166 26.426 34.166 25.342 Z M 48 24.538 L 48 28.798 L 46.22 28.798 L 46.22 24.976 C 46.22 23.768 45.658 23.248 44.812 23.248 C 44.02 23.248 43.456 23.642 43.456 24.976 L 43.456 28.796 L 41.676 28.796 L 41.676 24.976 C 41.676 23.768 41.106 23.248 40.268 23.248 C 39.476 23.248 38.78 23.642 38.78 24.976 L 38.78 28.796 L 37 28.796 L 37 21.816 L 38.78 21.816 L 38.78 22.784 C 39.15 22.032 39.82 21.656 40.85 21.656 C 41.828 21.656 42.646 22.138 43.096 22.954 C 43.544 22.12 44.204 21.654 45.402 21.654 C 46.864 21.664 48 22.774 48 24.538 Z" fill="rgb(0,0,0)"></path></svg>