<svg xmlns="http://www.w3.org/2000/svg" xmlns:xlink="http://www.w3.org/1999/xlink" viewBox="0 0 48 48"><path d="M 31.704 17.962 L 22.528 17.962 L 22.528 0 L 31.704 0 C 36.656 0 40.684 4.028 40.684 8.98 C 40.684 13.932 36.656 17.962 31.704 17.962 Z" fill="transparent"></path><path d="M 23.47 15.02 L 29.704 15.02 C 33.034 15.02 35.742 12.31 35.742 8.982 C 35.742 5.654 33.032 2.944 29.704 2.944 L 23.47 2.944 Z" fill="rgb(255, 160, 36)" stroke-width="2" stroke="rgb(255, 160, 36)"></path><path d="M 25.47 17.962 L 16.296 17.962 C 11.344 17.962 7.316 13.934 7.316 8.982 C 7.316 4.03 11.344 0 16.296 0 L 25.472 0 L 25.472 17.962 Z" fill="transparent"></path><path d="M 16.296 2.942 C 12.966 2.942 10.258 5.652 10.258 8.98 C 10.258 12.308 12.966 15.02 16.296 15.02 L 22.53 15.02 L 22.53 2.942 Z" fill="rgb(255, 53, 18)" stroke-width="2" stroke="rgb(255, 53, 18)"></path><path d="M 25.47 32.98 L 16.296 32.98 C 11.344 32.98 7.316 28.952 7.316 24 C 7.316 19.048 11.344 15.02 16.296 15.02 L 25.472 15.02 L 25.472 32.98 Z" fill="transparent"></path><path d="M 16.296 17 C 12.966 17 10.258 19.71 10.258 23.038 C 10.258 26.366 12.968 29.076 16.296 29.076 L 22.53 29.076 L 22.53 17 Z" fill="rgb(93, 0, 255)" stroke-width="2" stroke="rgb(93, 0, 255)"></path><path d="M 16.344 48 C 11.366 48 7.314 43.972 7.314 39.02 C 7.314 34.068 11.342 30.04 16.294 30.04 L 25.47 30.04 L 25.47 38.922 C 25.47 43.928 21.376 48 16.344 48 Z" fill="transparent"></path><path d="M 16.296 30.98 C 12.963 30.984 10.262 33.685 10.258 37.018 C 10.258 40.348 12.988 43.056 16.346 43.056 C 19.756 43.056 22.532 40.304 22.532 36.92 L 22.532 30.98 Z" fill="rgb(22, 217, 142)" stroke-width="2" stroke="rgb(22, 217, 142)"></path><path d="M 31.704 32.98 L 31.508 32.98 C 26.556 32.98 22.528 28.952 22.528 24 C 22.528 19.048 26.556 15.02 31.508 15.02 L 31.704 15.02 C 36.656 15.02 40.684 19.048 40.684 24 C 40.684 28.952 36.656 32.98 31.704 32.98 Z" fill="transparent"></path><path d="M 30.438 17 C 27.108 17 24.4 19.71 24.4 23.038 C 24.4 26.366 27.11 29.076 30.438 29.076 L 30.634 29.076 C 33.964 29.076 36.672 26.366 36.672 23.038 C 36.672 19.71 33.962 17 30.634 17 Z" fill="rgb(58, 198, 230)" stroke-width="2" stroke="rgb(58, 198, 230)"></path></svg>