<svg xmlns="http://www.w3.org/2000/svg" xmlns:xlink="http://www.w3.org/1999/xlink" viewBox="0 0 48 48"><path d="M 30.674 47.958 L 45.106 44.836 C 45.106 44.836 39.898 9.61 39.856 9.376 C 39.82 9.144 39.628 8.992 39.434 8.992 C 39.24 8.992 35.576 8.72 35.576 8.72 C 35.576 8.72 33.026 6.172 32.698 5.898 C 32.627 5.834 32.545 5.784 32.456 5.75 L 30.628 47.958 Z M 23.42 22.61 C 23.42 22.61 21.8 21.762 19.872 21.762 C 16.978 21.762 16.864 23.574 16.864 24.044 C 16.864 26.508 23.344 27.474 23.344 33.302 C 23.344 37.892 20.464 40.822 16.532 40.822 C 11.824 40.822 9.452 37.892 9.452 37.892 L 10.744 33.72 C 10.744 33.72 13.234 35.852 15.304 35.852 C 15.811 35.869 16.304 35.68 16.671 35.33 C 17.038 34.979 17.248 34.495 17.254 33.988 C 17.254 30.75 11.946 30.6 11.946 25.27 C 11.878 20.796 15.088 16.438 21.6 16.438 C 24.114 16.438 25.35 17.16 25.35 17.16 L 23.46 22.59 Z M 22.34 1.66 C 22.612 1.66 22.882 1.736 23.15 1.93 C 21.182 2.86 19.022 5.208 18.134 9.914 C 16.881 10.319 15.621 10.704 14.356 11.07 C 15.394 7.5 17.902 1.68 22.34 1.68 Z M 24.81 7.558 L 24.81 7.828 C 23.302 8.292 21.644 8.796 20.022 9.3 C 20.954 5.746 22.688 4.01 24.192 3.358 C 24.578 4.36 24.81 5.71 24.81 7.558 Z M 25.888 3.09 C 27.276 3.238 28.17 4.824 28.746 6.6 C 28.048 6.828 27.276 7.062 26.43 7.332 L 26.43 6.828 C 26.43 5.324 26.238 4.086 25.888 3.086 Z M 31.872 5.668 C 31.832 5.668 31.752 5.71 31.716 5.71 C 31.68 5.71 31.138 5.86 30.288 6.13 C 29.442 3.664 27.936 1.39 25.272 1.39 L 25.042 1.39 C 24.27 0.418 23.338 0 22.53 0 C 16.318 0 13.35 7.754 12.42 11.692 C 10.032 12.422 8.294 12.964 8.1 13.04 C 6.75 13.466 6.712 13.504 6.556 14.78 C 6.406 15.704 2.896 42.906 2.896 42.906 L 30.018 48 Z" fill="rgb(141, 207, 43)"></path></svg>