<svg xmlns="http://www.w3.org/2000/svg" xmlns:xlink="http://www.w3.org/1999/xlink" viewBox="0 0 48 48"><path d="M 10.084 30.33 C 10.079 33.112 7.826 35.367 5.044 35.376 C 2.26 35.369 0.005 33.114 0 30.33 C 0.008 27.548 2.262 25.295 5.044 25.29 L 10.084 25.29 Z" fill="rgb(240, 48, 48)"></path><path d="M 12.626 30.33 C 12.634 27.549 14.887 25.297 17.668 25.29 C 20.449 25.297 22.702 27.549 22.71 30.33 L 22.71 42.956 C 22.703 45.738 20.45 47.992 17.668 48 C 14.886 47.992 12.633 45.738 12.626 42.956 Z" fill="rgb(240, 48, 48)"></path><path d="M 17.668 10.084 C 14.887 10.076 12.635 7.825 12.626 5.044 C 12.633 2.262 14.886 0.008 17.668 0 C 20.45 0.008 22.703 2.262 22.71 5.044 L 22.71 10.084 Z" fill="rgb(57, 198, 230)"></path><path d="M 17.668 12.626 C 20.449 12.634 22.702 14.887 22.71 17.668 C 22.702 20.449 20.449 22.702 17.668 22.71 L 5.044 22.71 C 2.262 22.703 0.008 20.45 0 17.668 C 0.008 14.886 2.262 12.633 5.044 12.626 Z" fill="rgb(57, 198, 230)"></path><path d="M 37.912 17.668 C 37.92 14.886 40.174 12.633 42.956 12.626 C 45.738 12.633 47.992 14.886 48 17.668 C 47.992 20.45 45.738 22.703 42.956 22.71 L 37.912 22.71 Z" fill="rgb(38, 189, 73)"></path><path d="M 35.376 17.668 C 35.368 20.451 33.113 22.705 30.33 22.71 C 27.549 22.702 25.297 20.449 25.29 17.668 L 25.29 5.044 C 25.295 2.262 27.548 0.008 30.33 0 C 33.114 0.005 35.369 2.26 35.376 5.044 Z" fill="rgb(38, 189, 73)"></path><path d="M 30.33 37.912 C 33.114 37.917 35.369 40.172 35.376 42.956 C 35.369 45.74 33.114 47.995 30.33 48 C 27.548 47.992 25.295 45.738 25.29 42.956 L 25.29 37.912 Z" fill="rgb(255, 210, 61)"></path><path d="M 30.33 35.376 C 27.547 35.368 25.294 33.113 25.29 30.33 C 25.297 27.549 27.549 25.297 30.33 25.29 L 42.956 25.29 C 45.738 25.295 47.992 27.548 48 30.33 C 47.995 33.114 45.74 35.369 42.956 35.376 Z" fill="rgb(255, 210, 61)"></path></svg>