<svg xmlns="http://www.w3.org/2000/svg" xmlns:xlink="http://www.w3.org/1999/xlink" viewBox="0 0 48 48"><path d="M 27.952 18.3 C 23.608 16.688 21.24 15.448 21.24 13.482 C 21.24 11.82 22.606 10.872 25.042 10.872 C 29.496 10.872 34.072 12.588 37.222 14.134 L 39.002 3.146 C 36.504 1.95 31.394 0 24.33 0 C 19.334 0 15.178 1.308 12.208 3.744 C 9.12 6.294 7.514 9.984 7.514 14.436 C 7.514 22.514 12.448 25.956 20.466 28.874 C 25.636 30.714 27.356 32.022 27.356 34.04 C 27.356 36 25.676 37.13 22.648 37.13 C 18.898 37.13 12.718 35.288 8.668 32.912 L 6.868 44.022 C 10.35 45.98 16.77 48 23.428 48 C 28.71 48 33.114 46.752 36.084 44.374 C 39.412 41.764 41.134 37.902 41.134 32.91 C 41.134 24.654 36.086 21.208 27.946 18.3 Z" fill="rgb(98, 41, 242)"></path></svg>