<svg xmlns="http://www.w3.org/2000/svg" xmlns:xlink="http://www.w3.org/1999/xlink" viewBox="0 0 48 48"><path d="M 8.314 0 C 6.107 -0.003 3.989 0.873 2.429 2.434 C 0.869 3.996 -0.005 6.115 0 8.322 L 0 39.678 C -0.005 41.885 0.869 44.004 2.429 45.566 C 3.989 47.127 6.107 48.003 8.314 48 L 39.678 48 C 41.887 48.005 44.006 47.13 45.568 45.568 C 47.13 44.006 48.005 41.887 48 39.678 L 48 8.322 C 48.005 6.113 47.13 3.994 45.568 2.432 C 44.006 0.87 41.887 -0.005 39.678 0 Z M 29.534 17.522 L 29.594 17.522 C 29.751 17.516 29.907 17.542 30.054 17.598 C 30.203 17.652 30.34 17.737 30.456 17.846 C 30.669 18.082 30.785 18.39 30.78 18.708 C 30.79 19.029 30.674 19.342 30.456 19.578 C 30.341 19.69 30.204 19.777 30.054 19.834 C 29.908 19.893 29.751 19.922 29.594 19.918 C 29.433 19.926 29.272 19.897 29.124 19.834 C 28.821 19.717 28.581 19.479 28.46 19.178 C 28.401 19.029 28.375 18.868 28.384 18.708 C 28.38 18.387 28.502 18.078 28.724 17.846 C 28.943 17.638 29.233 17.523 29.534 17.522 Z M 35.24 20.666 C 35.3 20.674 35.362 20.674 35.43 20.674 C 36.08 20.652 36.722 20.802 37.304 21.112 C 37.78 21.4 38.166 21.822 38.408 22.33 C 38.664 22.888 38.786 23.494 38.778 24.106 L 38.778 24.492 C 38.786 24.638 38.786 24.784 38.778 24.93 L 33.782 24.93 C 33.788 25.384 33.932 25.83 34.19 26.214 C 34.513 26.584 34.992 26.781 35.482 26.744 C 35.827 26.774 36.171 26.677 36.45 26.472 C 36.666 26.313 36.827 26.091 36.91 25.836 L 38.74 26.35 C 38.634 26.745 38.443 27.111 38.18 27.424 C 37.9 27.742 37.538 27.992 37.138 28.134 C 36.603 28.33 36.036 28.423 35.466 28.406 C 34.767 28.428 34.074 28.258 33.464 27.916 C 32.888 27.594 32.424 27.103 32.134 26.51 C 31.818 25.866 31.662 25.155 31.68 24.438 C 31.621 23.416 31.965 22.412 32.64 21.642 C 33.352 21 34.281 20.652 35.24 20.666 Z M 16.026 20.712 C 16.35 20.72 16.676 20.764 16.986 20.87 C 17.4 21 17.786 21.218 18.112 21.498 C 18.632 22.102 18.898 22.882 18.844 23.674 L 18.844 28.226 L 17.06 28.226 L 16.842 26.804 L 16.712 26.804 C 16.584 27.13 16.402 27.424 16.168 27.682 C 15.958 27.908 15.703 28.087 15.42 28.21 C 15.135 28.333 14.825 28.39 14.514 28.376 C 13.893 28.407 13.28 28.221 12.782 27.848 C 12.322 27.448 12.078 26.854 12.124 26.246 C 12.11 25.951 12.162 25.656 12.276 25.384 C 12.383 25.11 12.548 24.862 12.76 24.658 C 13.353 24.199 14.099 23.982 14.846 24.052 L 16.75 24.052 L 16.75 23.69 C 16.768 23.365 16.672 23.044 16.478 22.782 C 16.245 22.556 15.925 22.443 15.602 22.474 C 15.339 22.458 15.077 22.518 14.846 22.646 C 14.663 22.766 14.527 22.946 14.46 23.154 L 12.48 22.866 C 12.555 22.454 12.732 22.067 12.994 21.74 C 13.274 21.392 13.636 21.136 14.06 20.984 C 14.582 20.802 15.14 20.712 15.7 20.726 C 15.806 20.72 15.912 20.712 16.026 20.712 Z M 24.794 20.726 C 25.142 20.726 25.488 20.802 25.806 20.954 C 26.17 21.12 26.486 21.376 26.722 21.702 C 27.236 22.548 27.476 23.524 27.424 24.514 C 27.484 25.529 27.236 26.538 26.714 27.41 C 26.27 28.086 25.504 28.479 24.696 28.444 C 24.288 28.444 23.894 28.354 23.532 28.172 C 23.122 27.979 22.785 27.658 22.572 27.258 C 22.481 27.11 22.404 26.953 22.344 26.79 L 22.254 26.79 L 22.262 30.358 L 20.144 30.358 L 20.144 20.932 L 21.952 20.932 L 22.186 22.542 L 22.3 22.542 C 22.436 22.126 22.654 21.74 22.956 21.422 C 23.397 20.966 24.008 20.717 24.642 20.734 L 24.794 20.734 Z M 39.912 20.894 L 41.718 20.894 L 41.944 22.504 L 42.05 22.504 C 42.141 22.153 42.301 21.824 42.52 21.536 C 42.686 21.326 42.901 21.159 43.146 21.052 C 43.39 20.938 43.657 20.886 43.926 20.9 L 44.394 20.9 L 44.394 23.002 L 43.592 23.002 C 43.385 22.957 43.17 22.963 42.966 23.018 C 42.761 23.073 42.574 23.18 42.422 23.328 C 42.266 23.471 42.147 23.649 42.074 23.848 C 42.007 24.05 41.989 24.265 42.02 24.476 L 42.02 28.226 L 39.912 28.226 Z M 4.882 20.9 L 11.406 20.9 L 11.406 22.692 L 7.46 26.208 L 7.528 26.434 L 11.474 26.434 L 11.558 28.234 L 4.8 28.234 L 4.8 26.434 L 8.662 22.926 L 8.572 22.692 L 4.882 22.692 Z M 28.512 20.9 L 30.622 20.9 L 30.622 28.218 L 28.512 28.218 Z M 35.398 22.268 L 35.436 22.3 C 35.198 22.268 34.956 22.299 34.734 22.39 C 34.513 22.479 34.317 22.619 34.16 22.798 C 33.94 23.108 33.812 23.47 33.782 23.842 L 36.872 23.842 C 36.804 22.79 36.358 22.268 35.392 22.268 Z M 23.962 22.594 C 23.91 22.594 23.848 22.594 23.796 22.602 C 23.584 22.595 23.373 22.631 23.176 22.708 C 22.979 22.795 22.804 22.924 22.662 23.086 C 22.36 23.483 22.215 23.978 22.254 24.476 L 22.254 24.604 C 22.224 25.118 22.368 25.618 22.662 26.026 C 22.794 26.198 22.969 26.333 23.168 26.418 C 23.364 26.511 23.58 26.553 23.796 26.54 C 24.248 26.579 24.687 26.378 24.952 26.01 C 25.232 25.564 25.36 25.05 25.33 24.53 C 25.359 24.03 25.232 23.533 24.968 23.108 C 24.724 22.798 24.356 22.611 23.962 22.594 Z M 14.944 25.126 C 14.748 25.136 14.561 25.207 14.408 25.33 C 14.258 25.474 14.176 25.674 14.18 25.882 C 14.18 25.988 14.196 26.094 14.234 26.192 C 14.273 26.291 14.332 26.381 14.408 26.456 C 14.636 26.625 14.919 26.703 15.202 26.676 L 15.202 26.684 C 15.609 26.699 16.007 26.57 16.328 26.32 C 16.602 26.097 16.758 25.759 16.75 25.406 L 16.75 25.126 Z" fill="rgb(255, 98, 0)"></path></svg>